<svg width="36" height="37" viewBox="0 0 36 37" fill="none" xmlns="http://www.w3.org/2000/svg">
<path d="M13.4896 8.86194C13.2972 8.30586 13.192 7.70562 13.192 7.08031C13.192 4.20266 15.4098 1.86987 18.1458 1.86987C20.8817 1.86987 23.0996 4.20266 23.0996 7.08031C23.0996 7.92324 22.9081 8.72228 22.5685 9.42882C23.0571 9.46437 23.5318 9.6959 23.878 10.112C25.7585 12.3725 27.4042 15.5957 27.4042 19.3316C27.4042 22.0025 26.53 23.9817 25.3487 25.4078L27.5923 25.8217C28.5085 25.9907 29.1767 26.8275 29.1767 27.8058V31.5829C29.1767 32.1172 28.9749 32.6296 28.6158 33.0074C28.2566 33.3851 27.7694 33.5974 27.2615 33.5974L9.03003 33.5974C7.97228 33.5974 7.11481 32.6955 7.11481 31.5829V27.8058C7.11481 26.8287 7.78156 25.9924 8.6964 25.8222L10.7203 25.4456C9.5229 24.0169 8.6341 22.0266 8.6341 19.3316C8.6341 16.4169 9.70802 13.8784 10.9676 11.9331C11.7593 10.7103 12.6556 9.67219 13.4896 8.86194Z" fill="#34364C"/>
<path d="M19.085 19.0655H17.1697C17.1697 15.3666 18.2364 11.6738 20.5961 8.97082C20.9659 8.44142 21.1843 7.7878 21.1843 7.08051C21.1843 5.31541 19.8239 3.88452 18.1458 3.88452C16.4676 3.88452 15.1072 5.31541 15.1072 7.08051C15.1072 7.95136 15.4384 8.74087 15.9754 9.31731C14.0773 10.7406 10.5493 14.5555 10.5493 19.3318C10.5493 24.152 14.1423 26.1034 16.0272 26.5041L9.03003 27.806V31.5831L27.2615 31.5831V27.806L20.0984 26.4847C22.0046 26.0433 25.489 24.0786 25.489 19.3318C25.489 16.2237 24.1124 13.4531 22.4366 11.4387C20.5961 12.9495 19.085 16.4748 19.085 19.0655Z" fill="#F4F7FA"/>
</svg>
