<svg width="36" height="37" viewBox="0 0 36 37" fill="none" xmlns="http://www.w3.org/2000/svg">
<g clip-path="url(#clip0_604_24858)">
<path fill-rule="evenodd" clip-rule="evenodd" d="M15.29 2.31065C15.3223 1.22314 16.1699 0.359131 17.2043 0.359131H20.0772C21.1116 0.359131 21.9591 1.22314 21.9914 2.31065L22.0083 2.87719H22.95C24.0077 2.87719 24.8652 3.77908 24.8652 4.89163V6.11342C26.9529 5.61651 29.2062 5.94843 31.1188 7.62479C35.092 11.1073 34.7264 18.4076 30.011 22.4006C28.8731 23.3642 27.9791 24.1631 27.3636 24.9862C27.2231 25.174 27.1028 25.3557 27.0015 25.5335L28.9425 25.8097C29.8924 25.9448 30.6011 26.7977 30.6011 27.8059V31.583C30.6011 32.6956 29.7436 33.5975 28.6858 33.5975H8.59564C7.53789 33.5975 6.68042 32.6956 6.68042 31.583V27.8059C6.68042 26.7977 7.38905 25.9448 8.33895 25.8097L10.28 25.5335C10.1787 25.3557 10.0584 25.174 9.91793 24.9862C9.30234 24.1631 8.40837 23.3642 7.27044 22.4006C2.55506 18.4076 2.18948 11.1073 6.16269 7.62479C8.07524 5.94843 10.3286 5.61651 12.4163 6.11342V4.89163C12.4163 3.77908 13.2737 2.87719 14.3315 2.87719H15.2732L15.29 2.31065Z" fill="#34364C"/>
<path fill-rule="evenodd" clip-rule="evenodd" d="M17.2043 2.37354H20.0772L20.152 4.89159H22.95V7.91326H20.2417L20.3733 11.3343C20.4258 11.2692 20.4799 11.2054 20.5356 11.1432C23.1514 8.21899 27.0297 6.6629 29.8927 9.17228C32.7655 11.6903 32.7655 17.4819 28.81 20.8315C26.5693 22.7289 24.5623 24.5581 24.6612 27.2334L28.6858 27.8059V31.583H8.59564V27.8059L12.6203 27.2334C12.7192 24.5581 10.7122 22.7289 8.47151 20.8315C4.51595 17.4819 4.51595 11.6903 7.38879 9.17228C10.2517 6.6629 14.1301 8.21899 16.7459 11.1432C16.8016 11.2054 16.8557 11.2692 16.9082 11.3343L17.0397 7.91326H14.3315V4.89159H17.1295L17.2043 2.37354ZM14.4981 13.9431C16.2537 16.9677 16.4861 20.5035 16.4861 22.0412C15.6061 22.0428 12.2888 20.5078 10.5325 17.9878C9.26802 16.1736 8.93831 13.4819 10.0222 12.4369C11.1061 11.392 13.4009 12.0526 14.4981 13.9431ZM22.7834 13.9431C21.0277 16.9677 20.7954 20.5035 20.7954 22.0412C21.6753 22.0428 24.9927 20.5078 26.749 17.9878C28.0135 16.1736 28.3432 13.4819 27.2593 12.4369C26.1753 11.392 23.8806 12.0526 22.7834 13.9431Z" fill="#F4F7FA"/>
</g>
<defs>
<clipPath id="clip0_604_24858">
<rect width="34.4741" height="36.26" fill="white" transform="translate(0.924911 0.359131)"/>
</clipPath>
</defs>
</svg>
