<svg width="35" height="37" viewBox="0 0 35 37" fill="none" xmlns="http://www.w3.org/2000/svg">
<path d="M14.2444 0.614443C14.8748 0.539881 15.4994 0.79851 15.9124 1.30508L19.8199 6.09868C24.3072 7.26504 26.9072 10.819 28.3452 15.2558C29.827 19.8275 30.1935 25.6313 30.1935 31.583C30.1935 32.6956 29.336 33.5974 28.2783 33.5974H10.4212C9.40438 33.5974 8.56483 32.7618 8.50884 31.6939C8.45887 30.741 8.66732 29.0876 9.3025 27.3987L9.31418 27.3678C7.5104 28.3862 5.50856 28.1423 4.02249 27.0294C2.2165 25.6769 1.21232 23.0294 2.35961 20.4148C3.18693 18.5294 4.0786 17.531 4.75314 16.776C5.38323 16.0706 5.6458 15.7604 5.83156 14.9789C6.95783 10.2404 9.27489 7.51075 11.7632 6.26502C11.7272 5.7252 11.7565 5.20512 11.8195 4.73293C11.9762 3.5576 12.3662 2.47147 12.7639 1.67746C13.0595 1.08708 13.614 0.689005 14.2444 0.614443Z" fill="#34364C"/>
<path fill-rule="evenodd" clip-rule="evenodd" d="M18.7839 7.92255L14.4584 2.61621C13.8323 3.86647 13.2253 6.07309 14.098 7.66605C13.6744 7.70571 13.2696 7.78107 12.9565 7.91324C10.9588 8.75644 8.76692 10.9349 7.6896 15.4674C7.37765 16.7798 6.8162 17.4083 6.1489 18.1553C5.51944 18.8599 4.7958 19.67 4.09855 21.2589C2.66214 24.5324 6.5387 27.8059 9.36543 24.8327C10.9546 23.1612 12.3438 22.4711 13.5101 21.8918C15.1887 21.0579 16.4056 20.4534 17.093 17.4818C17.4201 18.8679 17.2893 22.1391 14.1496 24.1351C11.0099 26.131 10.3557 30.3355 10.4212 31.5829H28.2783C28.2783 19.7396 26.7875 9.50707 18.7839 7.92255Z" fill="#F4F7FA"/>
<ellipse cx="13.4353" cy="13.9566" rx="1.43642" ry="1.51083" fill="#34364C"/>
</svg>
