<svg width="36" height="37" viewBox="0 0 36 37" fill="none" xmlns="http://www.w3.org/2000/svg">
<path d="M11.9889 20.7248C11.7604 21.0528 11.4878 21.3945 11.17 21.746C10.0483 22.9864 8.67274 24.0069 7.78494 24.5405L7.63559 24.6303C7.03885 24.989 6.67059 25.6564 6.67059 26.3793V31.2366C6.67059 32.3492 7.52806 33.2511 8.58581 33.2511H27.2593C28.317 33.2511 29.1745 32.3492 29.1745 31.2366V26.3793C29.1745 25.6564 28.8062 24.989 28.2095 24.6303L28.0601 24.5406C27.1723 24.007 25.7967 22.9864 24.6751 21.746C24.3573 21.3945 24.0846 21.0528 23.8561 20.7248C24.6967 20.5118 25.3212 19.7157 25.3212 18.7663V15.4871C25.3212 14.8326 25.0189 14.2189 24.5105 13.8414L23.697 13.2375C24.1664 12.2783 24.432 11.1898 24.432 10.037C24.432 6.16959 21.4513 3.03442 17.7743 3.03442C14.0974 3.03442 11.1166 6.16959 11.1166 10.037C11.1166 11.2546 11.4129 12.4002 11.9324 13.3975L11.3346 13.8414C10.8262 14.2189 10.5238 14.8326 10.5238 15.4871V18.7663C10.5238 19.7157 11.1484 20.5118 11.9889 20.7248Z" fill="#34364C"/>
<path d="M22.5168 10.037C22.5168 11.4837 21.9313 12.7865 20.9958 13.6977L23.406 15.4871V18.7662H21.0465C21.1603 20.2862 22.0875 21.8074 23.2873 23.1342C24.5606 24.5424 26.0926 25.6781 27.1099 26.2895L27.2593 26.3793V31.2366H8.58582V26.3793L8.73516 26.2895C9.75252 25.6781 11.2845 24.5424 12.5577 23.1342C13.7575 21.8074 14.6848 20.2862 14.7985 18.7662H12.4391V15.4871L14.6837 13.8205C13.6724 12.9058 13.0319 11.55 13.0319 10.037C13.0319 7.2821 15.1551 5.04883 17.7743 5.04883C20.3935 5.04883 22.5168 7.2821 22.5168 10.037Z" fill="#F4F7FA"/>
</svg>
