<svg width="36" height="37" viewBox="0 0 36 37" fill="none" xmlns="http://www.w3.org/2000/svg">
<path d="M9.57801 5.39529C9.57801 5.89253 9.65406 6.37094 9.7946 6.81842L8.84922 7.28486C8.06548 6.43038 6.96553 5.89891 5.74756 5.89891C3.36763 5.89891 1.43831 7.92818 1.43831 10.4314C1.43831 12.6628 2.97135 14.5176 4.99005 14.8941L7.26059 23.0821C7.30799 23.253 7.37672 23.4166 7.46498 23.5685L8.77361 25.8208L8.76557 25.8223C7.85074 25.9926 7.18398 26.8288 7.18398 27.806V31.5831C7.18398 32.6956 8.04146 33.5975 9.09921 33.5975L27.3307 33.5975C27.8386 33.5975 28.3258 33.3853 28.6849 33.0075C29.0441 32.6297 29.2459 32.1173 29.2459 31.5831V27.806C29.2459 26.8277 28.5776 25.9908 27.6615 25.8218L27.623 25.8147L28.9281 23.5685C29.0163 23.4166 29.0851 23.253 29.1325 23.0821L31.403 14.8941C33.4217 14.5176 34.9547 12.6628 34.9547 10.4314C34.9547 7.92818 33.0254 5.89891 30.6455 5.89891C29.426 5.89891 28.3248 6.43172 27.5409 7.28809L26.5972 6.82248C26.7385 6.37384 26.815 5.89403 26.815 5.39529C26.815 2.89206 24.8857 0.862793 22.5058 0.862793C20.1258 0.862793 18.1965 2.89206 18.1965 5.39529C18.1965 2.89206 16.2672 0.862793 13.8873 0.862793C11.5073 0.862793 9.57801 2.89206 9.57801 5.39529Z" fill="#34364C"/>
<path d="M14.7466 7.74621C15.6443 7.38298 16.2813 6.46736 16.2813 5.39525C16.2813 4.00457 15.2095 2.8772 13.8873 2.8772C12.5651 2.8772 11.4932 4.00457 11.4932 5.39525C11.4932 6.68039 12.4086 7.74067 13.5909 7.89421L12.5233 16.9783L7.37656 12.2766C7.84716 11.8168 8.1416 11.1603 8.1416 10.4314C8.1416 9.04068 7.06975 7.91331 5.74757 7.91331C4.42538 7.91331 3.35353 9.04068 3.35353 10.4314C3.35353 11.8221 4.42538 12.9494 5.74757 12.9494C5.98032 12.9494 6.20531 12.9145 6.41807 12.8493L9.09921 22.518L11.8718 27.29L9.09921 27.8059V31.583L27.3307 31.583V27.8059L24.5225 27.2879L27.2938 22.518L29.975 12.8493C30.1877 12.9145 30.4127 12.9494 30.6455 12.9494C31.9677 12.9494 33.0395 11.8221 33.0395 10.4314C33.0395 9.04068 31.9677 7.91331 30.6455 7.91331C29.3233 7.91331 28.2515 9.04068 28.2515 10.4314C28.2515 11.1603 28.5459 11.8168 29.0165 12.2766L23.8698 16.9783L22.8021 7.89421C23.9845 7.74067 24.8998 6.68039 24.8998 5.39525C24.8998 4.00457 23.828 2.8772 22.5058 2.8772C21.1836 2.8772 20.1118 4.00457 20.1118 5.39525C20.1118 6.46736 20.7488 7.38298 21.6464 7.74621L18.1965 15.9711L14.7466 7.74621Z" fill="#F4F7FA"/>
</svg>
