<svg width="35" height="37" viewBox="0 0 35 37" fill="none" xmlns="http://www.w3.org/2000/svg">
<path d="M12.5123 2.8772C12.8611 2.8772 13.1882 2.9753 13.4699 3.14669C13.7516 2.9753 14.0786 2.8772 14.4275 2.8772H19.6944C20.0432 2.8772 20.3703 2.9753 20.652 3.14669C20.9337 2.9753 21.2607 2.8772 21.6096 2.8772H26.3976C27.4554 2.8772 28.3129 3.77909 28.3129 4.89164V9.42414C28.3129 10.0582 28.029 10.6553 27.5468 11.0357L24.5915 13.367L25.4283 21.2883C25.6499 23.3855 26.5779 24.4495 27.9298 26.3455C28.1785 26.6942 28.3129 27.1183 28.3129 27.5541V31.583C28.3129 32.6956 27.4554 33.5975 26.3976 33.5975H7.7242C6.66645 33.5975 5.80898 32.6956 5.80898 31.583V27.5541C5.80898 27.1183 5.94338 26.6942 6.19202 26.3455C7.54393 24.4495 8.47198 23.3855 8.69353 21.2883L9.53033 13.367L6.57507 11.0357C6.0928 10.6553 5.80898 10.0582 5.80898 9.42414V4.89164C5.80898 3.77909 6.66645 2.8772 7.7242 2.8772H12.5123Z" fill="#34364C"/>
<path d="M7.72421 4.8916H12.5123V7.91327H14.4275V4.8916H19.6944V7.91327H21.6096V4.8916H26.3976V9.4241L22.5672 12.4458L23.5248 21.5108H10.597L11.5547 12.4458L7.72421 9.4241V4.8916Z" fill="#F4F7FA"/>
<path d="M10.597 23.5252H23.5248L26.3976 27.5541V31.583H7.72421V27.5541L10.597 23.5252Z" fill="#F4F7FA"/>
</svg>
