<svg width="36" height="38" viewBox="0 0 36 38" fill="none" xmlns="http://www.w3.org/2000/svg">
<path d="M13.5934 9.43542C13.401 8.87935 13.2957 8.27911 13.2957 7.6538C13.2957 4.77614 15.5136 2.44336 18.2495 2.44336C20.9855 2.44336 23.2033 4.77614 23.2033 7.6538C23.2033 8.49673 23.0118 9.29577 22.6723 10.0023C23.1609 10.0379 23.6356 10.2694 23.9817 10.6854C25.8623 12.946 27.508 16.1692 27.508 19.9051C27.508 22.576 26.6338 24.5552 25.4524 25.9813L27.6961 26.3952C28.6123 26.5642 29.2805 27.401 29.2805 28.3793V32.1564C29.2805 32.6907 29.0787 33.2031 28.7195 33.5808C28.3604 33.9586 27.8732 34.1709 27.3653 34.1709L9.13381 34.1709C8.07606 34.1709 7.21859 33.269 7.21859 32.1564V28.3793C7.21859 27.4022 7.88534 26.5659 8.80018 26.3957L10.8241 26.0191C9.62669 24.5903 8.73788 22.6001 8.73788 19.9051C8.73788 16.9903 9.8118 14.4519 11.0714 12.5065C11.8631 11.2838 12.7594 10.2457 13.5934 9.43542Z" fill="#F4F7FA"/>
<path d="M19.1887 19.639H17.2735C17.2735 15.94 18.3402 12.2473 20.6999 9.54431C21.0697 9.01491 21.2881 8.36128 21.2881 7.654C21.2881 5.8889 19.9277 4.45801 18.2495 4.45801C16.5714 4.45801 15.211 5.8889 15.211 7.654C15.211 8.52485 15.5421 9.31435 16.0792 9.8908C14.1811 11.314 10.6531 15.129 10.6531 19.9053C10.6531 24.7255 14.2461 26.6769 16.131 27.0775L9.13381 28.3795V32.1566L27.3653 32.1566V28.3795L20.2022 27.0582C22.1084 26.6168 25.5928 24.6521 25.5928 19.9053C25.5928 16.7972 24.2162 14.0266 22.5404 12.0122C20.6999 13.523 19.1887 17.0483 19.1887 19.639Z" fill="#34364C"/>
</svg>
