<svg width="36" height="38" viewBox="0 0 36 38" fill="none" xmlns="http://www.w3.org/2000/svg">
<g clip-path="url(#clip0_604_24875)">
<path fill-rule="evenodd" clip-rule="evenodd" d="M15.29 2.88414C15.3223 1.79662 16.1699 0.932617 17.2043 0.932617H20.0772C21.1116 0.932617 21.9591 1.79662 21.9914 2.88414L22.0083 3.45067H22.95C24.0077 3.45067 24.8652 4.35257 24.8652 5.46512V6.6869C26.9529 6.19 29.2062 6.52192 31.1188 8.19827C35.092 11.6808 34.7264 18.9811 30.011 22.9741C28.8731 23.9377 27.9791 24.7366 27.3636 25.5597C27.2231 25.7475 27.1028 25.9292 27.0015 26.107L28.9425 26.3832C29.8924 26.5183 30.6011 27.3712 30.6011 28.3794V32.1565C30.6011 33.269 29.7436 34.1709 28.6858 34.1709H8.59564C7.53789 34.1709 6.68042 33.269 6.68042 32.1565V28.3794C6.68042 27.3712 7.38905 26.5183 8.33895 26.3832L10.28 26.107C10.1787 25.9292 10.0584 25.7475 9.91793 25.5597C9.30234 24.7366 8.40837 23.9377 7.27044 22.9741C2.55506 18.9811 2.18948 11.6808 6.16269 8.19827C8.07524 6.52192 10.3286 6.19 12.4163 6.6869V5.46512C12.4163 4.35257 13.2737 3.45067 14.3315 3.45067H15.2732L15.29 2.88414Z" fill="#F4F7FA"/>
<path fill-rule="evenodd" clip-rule="evenodd" d="M17.2043 2.94702H20.0772L20.152 5.46508H22.95V8.48674H20.2417L20.3733 11.9078C20.4258 11.8427 20.4799 11.7789 20.5356 11.7166C23.1514 8.79248 27.0297 7.23638 29.8927 9.74577C32.7655 12.2638 32.7655 18.0554 28.81 21.4049C26.5693 23.3024 24.5623 25.1315 24.6612 27.8069L28.6858 28.3794V32.1565H8.59564V28.3794L12.6203 27.8069C12.7192 25.1315 10.7122 23.3024 8.47151 21.4049C4.51595 18.0554 4.51595 12.2638 7.38879 9.74577C10.2517 7.23638 14.1301 8.79248 16.7459 11.7166C16.8016 11.7789 16.8557 11.8427 16.9082 11.9078L17.0397 8.48674H14.3315V5.46508H17.1295L17.2043 2.94702ZM14.4981 14.5166C16.2537 17.5412 16.4861 21.077 16.4861 22.6147C15.6061 22.6163 12.2888 21.0813 10.5325 18.5613C9.26802 16.7471 8.93831 14.0554 10.0222 13.0104C11.1061 11.9655 13.4009 12.6261 14.4981 14.5166ZM22.7834 14.5166C21.0277 17.5412 20.7954 21.077 20.7954 22.6147C21.6753 22.6163 24.9927 21.0813 26.749 18.5613C28.0135 16.7471 28.3432 14.0554 27.2593 13.0104C26.1753 11.9655 23.8806 12.6261 22.7834 14.5166Z" fill="#34364D"/>
</g>
<defs>
<clipPath id="clip0_604_24875">
<rect width="34.4741" height="36.26" fill="white" transform="translate(0.924911 0.932617)"/>
</clipPath>
</defs>
</svg>
