<svg width="35" height="38" viewBox="0 0 35 38" fill="none" xmlns="http://www.w3.org/2000/svg">
<path d="M14.2444 1.18793C14.8748 1.11337 15.4994 1.372 15.9124 1.87857L19.8199 6.67217C24.3072 7.83853 26.9072 11.3925 28.3452 15.8292C29.827 20.4009 30.1935 26.2048 30.1935 32.1565C30.1935 33.269 29.336 34.1709 28.2783 34.1709H10.4212C9.40438 34.1709 8.56483 33.3352 8.50884 32.2674C8.45887 31.3145 8.66732 29.6611 9.3025 27.9722L9.31418 27.9413C7.5104 28.9597 5.50856 28.7157 4.02249 27.6029C2.2165 26.2504 1.21232 23.6029 2.35961 20.9883C3.18693 19.1029 4.0786 18.1045 4.75314 17.3494C5.38323 16.6441 5.6458 16.3339 5.83156 15.5524C6.95783 10.8139 9.27489 8.08424 11.7632 6.8385C11.7272 6.29868 11.7565 5.7786 11.8195 5.30642C11.9762 4.13109 12.3662 3.04495 12.7639 2.25094C13.0595 1.66057 13.614 1.26249 14.2444 1.18793Z" fill="#F4F7FA"/>
<path fill-rule="evenodd" clip-rule="evenodd" d="M18.7839 8.49604L14.4584 3.1897C13.8323 4.43996 13.2253 6.64658 14.098 8.23953C13.6744 8.2792 13.2696 8.35456 12.9565 8.48673C10.9588 9.32992 8.76692 11.5084 7.6896 16.0409C7.37765 17.3533 6.8162 17.9818 6.1489 18.7288C5.51944 19.4334 4.7958 20.2435 4.09855 21.8324C2.66214 25.1059 6.5387 28.3794 9.36543 25.4062C10.9546 23.7347 12.3438 23.0446 13.5101 22.4653C15.1887 21.6314 16.4056 21.0269 17.093 18.0553C17.4201 19.4414 17.2893 22.7126 14.1496 24.7085C11.0099 26.7045 10.3557 30.909 10.4212 32.1564H28.2783C28.2783 20.3131 26.7875 10.0806 18.7839 8.49604Z" fill="#34364C"/>
<ellipse cx="13.4353" cy="14.5301" rx="1.43642" ry="1.51083" fill="#F4F7FA"/>
</svg>
