<svg width="36" height="37" viewBox="0 0 36 37" fill="none" xmlns="http://www.w3.org/2000/svg">
<path d="M12.0581 20.9914C11.8296 21.3195 11.557 21.6611 11.2392 22.0126C10.1175 23.253 8.74194 24.2735 7.85413 24.8071L7.70478 24.8969C7.10805 25.2556 6.73978 25.923 6.73978 26.6459V31.5032C6.73978 32.6158 7.59726 33.5177 8.65501 33.5177H27.3285C28.3862 33.5177 29.2437 32.6158 29.2437 31.5032V26.6459C29.2437 25.923 28.8754 25.2556 28.2787 24.8969L28.1293 24.8072C27.2415 24.2736 25.8659 23.253 24.7443 22.0126C24.4265 21.6611 24.1538 21.3195 23.9253 20.9914C24.7659 20.7784 25.3904 19.9824 25.3904 19.0329V15.7537C25.3904 15.0992 25.0881 14.4855 24.5797 14.108L23.7662 13.5041C24.2356 12.5449 24.5012 11.4564 24.5012 10.3036C24.5012 6.43619 21.5205 3.30103 17.8435 3.30103C14.1666 3.30103 11.1858 6.43619 11.1858 10.3036C11.1858 11.5212 11.4821 12.6668 12.0016 13.6641L11.4038 14.108C10.8954 14.4855 10.593 15.0992 10.593 15.7537V19.0329C10.593 19.9824 11.2176 20.7784 12.0581 20.9914Z" fill="#F4F7FA"/>
<path d="M22.586 10.3036C22.586 11.7503 22.0004 13.0531 21.065 13.9643L23.4752 15.7537V19.0328H21.1157C21.2295 20.5528 22.1567 22.074 23.3565 23.4008C24.6298 24.809 26.1617 25.9447 27.1791 26.5561L27.3285 26.6459V31.5032H8.65501V26.6459L8.80435 26.5561C9.82172 25.9447 11.3536 24.809 12.6269 23.4008C13.8267 22.074 14.7539 20.5528 14.8677 19.0328H12.5083V15.7537L14.7529 14.0871C13.7416 13.1724 13.1011 11.8166 13.1011 10.3036C13.1011 7.5487 15.2243 5.31543 17.8435 5.31543C20.4627 5.31543 22.586 7.5487 22.586 10.3036Z" fill="#34364C"/>
</svg>
