<svg width="36" height="38" viewBox="0 0 36 38" fill="none" xmlns="http://www.w3.org/2000/svg">
<path d="M9.57801 5.96878C9.57801 6.46602 9.65406 6.94443 9.7946 7.3919L8.84922 7.85835C8.06548 7.00387 6.96553 6.4724 5.74756 6.4724C3.36763 6.4724 1.43831 8.50166 1.43831 11.0049C1.43831 13.2363 2.97135 15.0911 4.99005 15.4676L7.26059 23.6556C7.30799 23.8265 7.37672 23.9901 7.46498 24.142L8.77361 26.3943L8.76557 26.3958C7.85074 26.566 7.18398 27.4023 7.18398 28.3795V32.1565C7.18398 33.2691 8.04146 34.171 9.09921 34.171L27.3307 34.171C27.8386 34.171 28.3258 33.9588 28.6849 33.581C29.0441 33.2032 29.2459 32.6908 29.2459 32.1566V28.3795C29.2459 27.4012 28.5776 26.5643 27.6615 26.3953L27.623 26.3882L28.9281 24.142C29.0163 23.9901 29.0851 23.8265 29.1325 23.6556L31.403 15.4676C33.4217 15.0911 34.9547 13.2363 34.9547 11.0049C34.9547 8.50166 33.0254 6.4724 30.6455 6.4724C29.426 6.4724 28.3248 7.0052 27.5409 7.86157L26.5972 7.39596C26.7385 6.94732 26.815 6.46752 26.815 5.96878C26.815 3.46555 24.8857 1.43628 22.5058 1.43628C20.1258 1.43628 18.1965 3.46555 18.1965 5.96878C18.1965 3.46555 16.2672 1.43628 13.8873 1.43628C11.5073 1.43628 9.57801 3.46555 9.57801 5.96878Z" fill="#F4F7FA"/>
<path d="M14.7466 8.3197C15.6443 7.95647 16.2813 7.04085 16.2813 5.96874C16.2813 4.57806 15.2095 3.45068 13.8873 3.45068C12.5651 3.45068 11.4932 4.57806 11.4932 5.96874C11.4932 7.25388 12.4086 8.31416 13.5909 8.46769L12.5233 17.5518L7.37656 12.8501C7.84716 12.3903 8.1416 11.7337 8.1416 11.0049C8.1416 9.61417 7.06975 8.4868 5.74757 8.4868C4.42538 8.4868 3.35353 9.61417 3.35353 11.0049C3.35353 12.3955 4.42538 13.5229 5.74757 13.5229C5.98032 13.5229 6.20531 13.488 6.41807 13.4228L9.09921 23.0915L11.8718 27.8635L9.09921 28.3794V32.1565L27.3307 32.1565V28.3794L24.5225 27.8614L27.2938 23.0915L29.975 13.4228C30.1877 13.488 30.4127 13.5229 30.6455 13.5229C31.9677 13.5229 33.0395 12.3955 33.0395 11.0049C33.0395 9.61417 31.9677 8.4868 30.6455 8.4868C29.3233 8.4868 28.2515 9.61417 28.2515 11.0049C28.2515 11.7337 28.5459 12.3903 29.0165 12.8501L23.8698 17.5518L22.8021 8.46769C23.9845 8.31416 24.8998 7.25388 24.8998 5.96874C24.8998 4.57806 23.828 3.45068 22.5058 3.45068C21.1836 3.45068 20.1118 4.57806 20.1118 5.96874C20.1118 7.04085 20.7488 7.95647 21.6464 8.3197L18.1965 16.5446L14.7466 8.3197Z" fill="#34364C"/>
</svg>
