<svg width="35" height="38" viewBox="0 0 35 38" fill="none" xmlns="http://www.w3.org/2000/svg">
<path d="M12.5123 3.45068C12.8611 3.45068 13.1882 3.54878 13.4699 3.72018C13.7516 3.54878 14.0786 3.45068 14.4275 3.45068H19.6944C20.0432 3.45068 20.3703 3.54878 20.652 3.72018C20.9337 3.54878 21.2607 3.45068 21.6096 3.45068H26.3976C27.4554 3.45068 28.3129 4.35258 28.3129 5.46513V9.99763C28.3129 10.6317 28.029 11.2287 27.5468 11.6092L24.5915 13.9405L25.4283 21.8618C25.6499 23.959 26.5779 25.023 27.9298 26.919C28.1785 27.2677 28.3129 27.6918 28.3129 28.1276V32.1565C28.3129 33.2691 27.4554 34.171 26.3976 34.171H7.7242C6.66645 34.171 5.80898 33.2691 5.80898 32.1565V28.1276C5.80898 27.6918 5.94338 27.2677 6.19202 26.919C7.54393 25.023 8.47198 23.959 8.69353 21.8618L9.53033 13.9405L6.57507 11.6092C6.0928 11.2287 5.80898 10.6317 5.80898 9.99763V5.46513C5.80898 4.35258 6.66645 3.45068 7.7242 3.45068H12.5123Z" fill="#F4F7FA"/>
<path d="M7.72421 5.46509H12.5123V8.48675H14.4275V5.46509H19.6944V8.48675H21.6096V5.46509H26.3976V9.99759L22.5672 13.0193L23.5248 22.0843H10.597L11.5547 13.0193L7.72421 9.99759V5.46509Z" fill="#34364C"/>
<path d="M10.597 24.0987H23.5248L26.3976 28.1276V32.1565H7.72421V28.1276L10.597 24.0987Z" fill="#34364C"/>
</svg>
