<svg width="52" height="48" viewBox="0 0 52 48" fill="none" xmlns="http://www.w3.org/2000/svg">
<path d="M34.0212 39.7263L1.90258 17.5709C-1.35225 15.3258 -0.24582 10.6512 3.81287 9.55195L37.9492 0.286958C38.6723 0.0260346 39.4472 -0.0586662 40.2097 0.0398918C40.972 0.13845 41.7 0.41742 42.333 0.853653C42.9659 1.28989 43.4858 1.8708 43.8493 2.54817C44.2127 3.22554 44.4095 3.97985 44.4231 4.74848L42.4 36.1671C42.1601 39.8964 37.276 41.9714 34.0212 39.7263Z" fill="#7A61FF"/>
<path d="M23.8337 45.1957L4.91164 8.19136C4.4791 7.34482 4.28877 6.39524 4.36162 5.44738C4.43446 4.49953 4.76768 3.5902 5.32449 2.81969C5.88132 2.04918 6.64012 1.44741 7.51723 1.08075C8.39433 0.714092 9.35565 0.59679 10.2952 0.741789L45.3625 6.15396C46.1698 6.27858 46.9361 6.59305 47.5983 7.07152C48.2604 7.55001 48.7994 8.17881 49.1713 8.90624C49.543 9.63367 49.7369 10.4389 49.7367 11.2559C49.7365 12.0728 49.5424 12.878 49.1706 13.6053L33.0164 45.1975C32.5826 46.0417 31.9245 46.7499 31.1143 47.2443C30.3042 47.7387 29.3736 48.0001 28.4245 48C27.4755 47.9998 26.5448 47.738 25.7349 47.2434C24.925 46.7485 24.2672 46.0401 23.8337 45.1957Z" fill="#7A61FF"/>
<path d="M44.3371 5.99467L26.8563 3.29663L5.39374 9.12417L13.9605 25.8835L34.0212 39.7264C34.4638 40.0284 34.9506 40.2597 35.4642 40.4121L43.0839 25.5111L44.3371 5.99467Z" fill="#17A1FA"/>
</svg>
